<?xml version="1.0" standalone="no"?><!DOCTYPE svg PUBLIC "-//W3C//DTD SVG 1.1//EN" "http://www.w3.org/Graphics/SVG/1.1/DTD/svg11.dtd"><svg t="1540196244318" class="icon" style="" viewBox="0 0 1024 1024" version="1.1" xmlns="http://www.w3.org/2000/svg" p-id="7879" xmlns:xlink="http://www.w3.org/1999/xlink" width="32" height="32"><defs><style type="text/css"></style></defs><path d="M75.243 550.694L511.291 88.357l436.047 462.337z" fill="#333333" p-id="7880"></path><path d="M948.766 622.173a4.972 4.972 0 0 0-1.431 0H75.228c-28.518 0-54.35-16.965-65.625-43.145a71.548 71.548 0 0 1 13.615-77.424L459.272 39.3c27.018-28.623 77.005-28.623 104.021 0l428.374 454.206c17.349 13.055 28.588 33.79 28.588 57.178 0 39.515-32.01 71.489-71.489 71.489zM240.93 479.196h540.705L511.283 192.542 240.931 479.196z" fill="#333333" p-id="7881"></path></svg>