<?xml version="1.0" encoding="UTF-8"?>
<svg width="16px" height="16px" viewBox="0 0 16 16" version="1.1" xmlns="http://www.w3.org/2000/svg" xmlns:xlink="http://www.w3.org/1999/xlink">
    <!-- Generator: Sketch 52.2 (67145) - http://www.bohemiancoding.com/sketch -->
    <title>分层</title>
    <desc>Created with Sketch.</desc>
    <g id="Page-1" stroke="none" stroke-width="1" fill="none" fill-rule="evenodd">
        <g id="单体化插件" transform="translate(-206.000000, -65.000000)" fill="#FFFFFF" fill-rule="nonzero">
            <g id="分层-copy-9" transform="translate(206.000000, 65.000000)">
                <path d="M8.00010667,1.45472 C7.20096,1.45472 6.44138667,1.49248 5.72170667,1.568 C5.00224,1.64373333 4.39818667,1.73738667 3.90901333,1.85002667 C3.42016,1.96181334 2.98954666,2.08426667 2.61610667,2.21866667 C2.24277334,2.35264 1.96362667,2.47957334 1.77834667,2.59978667 C1.59296,2.71914667 1.48522667,2.8224 1.45429333,2.90933333 C1.48426666,2.99669333 1.59296,3.09952 1.77834667,3.21888 C1.96405334,3.33824 2.24384,3.4656 2.61610667,3.60021333 C2.98901334,3.7344 3.42016,3.8576 3.90901333,3.96885333 C4.39818666,4.08064 5.00224,4.1744 5.72181333,4.25066667 C6.44096,4.32693334 7.20053333,4.36405334 8.00010667,4.36405333 C8.79968,4.36405333 9.55925334,4.32576 10.2786133,4.25066667 C10.9979733,4.17557334 11.6023467,4.08181334 12.0912,3.96885333 C12.5800533,3.85706666 13.0112,3.73354666 13.3841067,3.60021333 C13.7563733,3.46602666 14.03616,3.33930666 14.2219733,3.21888 C14.4072533,3.09952 14.5159467,2.99626667 14.54592,2.90933333 C14.5159467,2.82197333 14.4072533,2.71914666 14.2219733,2.59978667 C14.03616,2.48064 13.7563733,2.35338667 13.3841067,2.21866667 C13.0112,2.08426667 12.5800533,1.96106667 12.0912,1.85002667 C11.60224,1.73802667 10.9979733,1.64448 10.2786133,1.568 C9.55925333,1.49194667 8.79968,1.45472 8.00010667,1.45472 Z M14.54592,7.98848 L14.54592,4.67626667 C13.8032,5.05130667 12.8465067,5.33514667 11.6769067,5.52864 C10.5064533,5.72245333 9.28085334,5.81824 8.00010667,5.81824 C6.71936,5.81824 5.49397334,5.7216 4.32352,5.52864 C3.15338667,5.33578667 2.19701333,5.05184 1.45418667,4.67626667 L1.45418667,8.00021333 C1.47712,8.08341333 1.57856,8.18336 1.75786667,8.30176 C1.93813334,8.41888 2.21333334,8.5456 2.58517333,8.68202667 C2.9568,8.81845334 3.38858666,8.94357334 3.88085333,9.05706667 C4.37258666,9.1712 4.98090666,9.26581334 5.70485333,9.34133333 C6.42869333,9.41706666 7.1936,9.45493333 8.00010667,9.45493333 C8.80650667,9.45493333 9.57152,9.41706666 10.2955733,9.34133333 C11.0193067,9.26581333 11.6267733,9.17109333 12.1166933,9.05706667 C12.60672,8.94357334 13.0382933,8.81845334 13.4097067,8.68202667 C13.7810133,8.54549334 14.05792,8.41781334 14.23904,8.29845333 C14.4208,8.17909333 14.52352,8.07573333 14.5463467,7.98848 L14.54592,7.98848 Z M14.54592,13.07968 L14.54592,9.76768 C13.8032,10.1428267 12.8465067,10.42656 11.6769067,10.62016 C10.5064533,10.8138667 9.28085334,10.9098667 8.00010667,10.9098667 C6.71936,10.9098667 5.49397334,10.8128 4.32352,10.62016 C3.15338667,10.4272 2.19701333,10.1432533 1.45418667,9.76768 L1.45418667,13.0916267 C1.47712,13.1745067 1.57856,13.2747733 1.75786667,13.39296 C1.93813334,13.5102933 2.21333334,13.6370133 2.58517333,13.77344 C2.9568,13.9099733 3.38858666,14.0347733 3.88085333,14.1483733 C4.37258666,14.2625067 4.98090666,14.35744 5.70485333,14.4327467 C6.42869333,14.5083733 7.1936,14.5463467 8.00010667,14.5463467 C8.80650667,14.5463467 9.57152,14.5083733 10.2955733,14.4327467 C11.0193067,14.35744 11.62784,14.26144 12.11936,14.1463467 C12.6116267,14.0302933 13.0436267,13.90432 13.41504,13.7681067 C13.7867733,13.6315733 14.0621867,13.50496 14.2423467,13.3873067 C14.42176,13.26944 14.5230933,13.1672533 14.54592,13.0798933 L14.54592,13.07968 Z M8.00010667,0 C8.99264,0 9.95317334,0.05952 10.8808533,0.17888 C11.8091733,0.297813328 12.6602667,0.472426672 13.4347733,0.701333328 C14.2090667,0.930453328 14.8304,1.23509333 15.2986667,1.616 C15.7669333,1.9968 16,2.42773333 16,2.9088 L16,13.09088 C16,13.5719467 15.7664,14.00288 15.2986667,14.384 C14.8308267,14.7642667 14.2097067,15.0695467 13.4347733,15.2984533 C12.6603733,15.52736 11.80832,15.7016533 10.8808533,15.8209067 C9.95306667,15.9402667 8.99328,16 8.00010667,16 C7.00704,16 6.04704,15.94048 5.11936,15.8208 C4.19168,15.7015467 3.33994667,15.52736 2.56544,15.2984533 C1.79072,15.0695467 1.16938667,14.7642667 0.701546672,14.384 C0.234026672,14.00288 0,13.5719467 0,13.09088 L0,2.90890667 C0,2.42784 0.234026672,1.99690667 0.701546672,1.616 C1.16938667,1.2352 1.79072,0.930453328 2.56544,0.701333328 C3.33984,0.472426656 4.19168,0.297813328 5.11936,0.17888 C6.04714667,0.0595200002 7.00693333,0 8,0 L8.00010667,0 Z" id="形状"></path>
            </g>
        </g>
    </g>
</svg>