<?xml version="1.0" encoding="UTF-8"?>
<svg width="16px" height="16px" viewBox="0 0 16 16" version="1.1" xmlns="http://www.w3.org/2000/svg" xmlns:xlink="http://www.w3.org/1999/xlink">
    <!-- Generator: Sketch 52.2 (67145) - http://www.bohemiancoding.com/sketch -->
    <title>绘制面</title>
    <desc>Created with Sketch.</desc>
    <g id="Page-1" stroke="none" stroke-width="1" fill="none" fill-rule="evenodd">
        <g id="单体化插件" transform="translate(-31.000000, -65.000000)" fill="#FFFFFF" fill-rule="nonzero">
            <g id="面积-copy-2" transform="translate(31.000000, 65.000000)">
                <path d="M15.5000193,3.64207848 C15.7763837,3.64207848 16,3.41844409 16,3.14209664 L16,0.499999455 C16,0.223634401 15.7763837,0 15.5000193,0 L12.8574173,0 C12.5815458,0 12.3574542,0.223634383 12.3574542,0.499999455 L12.3574542,1.32127747 L10.7344094,1.32127747 C10.6838797,1.31351312 10.6324167,1.31351312 10.5819046,1.32127747 L3.64258102,1.32127747 L3.64258102,0.499999455 C3.64258102,0.223634401 3.41845414,0 3.14258267,0 L0.499998342,0 C0.223633881,0 0,0.223634383 0,0.499999455 L0,3.14209662 C0,3.41846168 0.223633899,3.64207846 0.499998342,3.64207846 L1.32129215,3.64207846 L1.32129215,12.3579392 L0.499998342,12.3579392 C0.223633881,12.3579392 0,12.5815559 0,12.857921 L0,15.5000182 C0,15.7763832 0.223633899,16 0.499998342,16 L3.14258267,16 C3.41845416,16 3.64258102,15.7763832 3.64258102,15.5000182 L3.64258102,14.6787225 L12.3574366,14.6787225 L12.3574366,15.5000182 C12.3574366,15.7763832 12.5815458,16 12.8573997,16 L15.5000017,16 C15.7763661,16 15.9999824,15.7763832 15.9999824,15.5000182 L15.9999824,12.8579386 C15.9999824,12.5815736 15.7763661,12.3579568 15.5000017,12.3579568 L14.6787079,12.3579568 L14.6787079,5.34442527 C14.6795706,5.32748807 14.6795706,5.31051566 14.6787079,5.29357847 L14.6787079,3.64207848 L15.5000193,3.64207848 Z M13.3574333,0.99999891 L15.0000033,0.99999891 L15.0000033,2.64209719 L13.3574333,2.64209719 L13.3574333,0.99999891 Z M2.32128885,7.15679344 C2.35067359,7.13783152 2.3785618,7.11559484 2.40430205,7.08985454 L7.17285212,2.32127638 L9.44521336,2.32127638 L2.32128885,9.44523417 L2.32128885,7.15679344 Z M0.999996684,0.99999891 L2.64256671,0.99999891 L2.64256671,1.80224458 C2.64232023,1.80856522 2.64209135,1.81488586 2.64209135,1.82127692 C2.64209135,1.82766798 2.64233784,1.83398862 2.64256671,1.84030926 L2.64256671,2.64209717 L0.999996684,2.64209717 L0.999996684,0.99999891 Z M3.14258267,3.64207848 C3.41845416,3.64207848 3.64258102,3.41844409 3.64258102,3.14209664 L3.64258102,2.32127639 L5.75879291,2.32127639 L2.32128885,5.75878799 L2.32128885,3.64207848 L3.14258267,3.64207848 Z M2.32128885,10.8592789 L10.8592902,2.32127638 L12.3574542,2.32127638 L12.3574542,2.9339029 L2.93343867,12.3579392 L2.32128885,12.3579392 L2.32128885,10.8592789 Z M0.999996684,15.0000363 L0.999996684,13.3579381 L2.64256671,13.3579381 L2.64256671,14.1597084 C2.64232023,14.166029 2.64209135,14.1723672 2.64209135,14.1787407 C2.64209135,14.1851142 2.64233784,14.1914524 2.64256671,14.197773 L2.64256671,15.0000187 L0.999996684,15.0000187 L0.999996684,15.0000363 Z M13.6787112,8.77112666 L8.89093512,13.5588956 C8.85464876,13.5951821 8.82515837,13.6356412 8.80235836,13.6787413 L6.52670475,13.6787413 L13.6787112,6.52671913 L13.6787112,8.77112666 Z M15.0000033,15.0000363 L13.3574333,15.0000363 L13.3574333,13.3579381 L15.0000033,13.3579381 L15.0000033,15.0000363 Z M12.8574173,12.3579392 C12.5815458,12.3579392 12.3574542,12.5815559 12.3574542,12.857921 L12.3574542,13.6787236 L10.1851666,13.6787237 L13.6787288,10.1851714 L13.6787288,12.3579216 L12.8574173,12.3579216 L12.8574173,12.3579392 Z M13.6787112,5.1126568 L5.11264554,13.6787413 L3.64258102,13.6787413 L3.64258102,13.0628752 L13.063357,3.64209608 L13.6787112,3.64209608 L13.6787112,5.1126568 Z" id="形状"></path>
            </g>
        </g>
    </g>
</svg>