<?xml version="1.0" encoding="UTF-8"?>
<svg width="16px" height="17px" viewBox="0 0 16 17" version="1.1" xmlns="http://www.w3.org/2000/svg" xmlns:xlink="http://www.w3.org/1999/xlink">
    <!-- Generator: Sketch 52.2 (67145) - http://www.bohemiancoding.com/sketch -->
    <title>绘制体</title>
    <desc>Created with Sketch.</desc>
    <g id="Page-1" stroke="none" stroke-width="1" fill="none" fill-rule="evenodd">
        <g id="单体化插件" transform="translate(-115.000000, -65.000000)" fill="#FFFFFF" fill-rule="nonzero">
            <g id="259体积、空间-线性-copy-2" transform="translate(115.000000, 65.000000)">
                <path d="M15.3926247,3.84361037 L15.3752711,3.81132708 L15.352133,3.82272118 L8,0 L0,4.10187668 L0,12.9171135 L8,17 L16,12.8791332 L16,4.15884718 L15.3926247,3.84361037 Z M14.0313329,4.51016533 L7.97493372,7.65683646 L1.89925283,4.49877122 L7.99614365,1.37298928 L14.0313329,4.51016533 Z M1.2340323,5.52803843 L7.42154736,8.74307417 L7.42154736,15.3364611 L1.2340323,12.1783959 L1.2340323,5.52803843 Z M12.604483,13.2570375 L10.7515064,14.2122431 L8.65557966,15.2908847 L8.65557966,8.67660858 L14.7659677,5.49955317 L14.7659677,12.1404155 L12.604483,13.2570375 Z" id="形状"></path>
            </g>
        </g>
    </g>
</svg>