<?xml version="1.0" encoding="UTF-8"?>
<svg width="16px" height="15px" viewBox="0 0 16 15" version="1.1" xmlns="http://www.w3.org/2000/svg" xmlns:xlink="http://www.w3.org/1999/xlink">
    <!-- Generator: Sketch 52.2 (67145) - http://www.bohemiancoding.com/sketch -->
    <title>biangengcheliangyanse</title>
    <desc>Created with Sketch.</desc>
    <g id="Page-1" stroke="none" stroke-width="1" fill="none" fill-rule="evenodd">
        <g id="实景模型属性设置" transform="translate(-52.000000, -310.000000)" fill="#DEDEDE" fill-rule="nonzero">
            <g id="biangengcheliangyanse" transform="translate(52.000000, 309.723077)">
                <path d="M13.3841822,4.18507484 C9.93401856,2.55979116 7.02561619,5.83887227 5.65695626,4.18507484 C5.11519503,3.50074488 6.31277249,2.27465367 5.65695626,1.41924121 C5.17222254,0.820452489 4.03167259,0.934507482 3.29031512,1.41924121 C1.32286646,2.8164149 0.0112340127,5.09751479 0.0112340127,7.66375218 C0.0112340127,11.883787 3.46139762,15.2769231 7.73845992,15.2769231 C11.3026785,15.2769231 14.2966221,12.9102819 15.2090621,9.74525583 C15.4941996,8.60470588 15.8363645,5.41116603 13.3841822,4.18507484 Z M2.00719642,7.52118344 C2.00719642,6.89388096 2.5204439,6.38063348 3.14774637,6.38063348 C3.77504885,6.38063348 4.28829633,6.89388096 4.28829633,7.52118344 C4.28829633,8.14848591 3.77504885,8.66173339 3.14774637,8.66173339 C2.5204439,8.66173339 2.00719642,8.14848591 2.00719642,7.52118344 Z M4.77303005,11.9123007 C4.14572758,11.9123007 3.6324801,11.3990532 3.6324801,10.7717508 C3.6324801,10.1444483 4.14572758,9.63120083 4.77303005,9.63120084 C5.40033252,9.63120085 5.91358,10.1444483 5.91358,10.7717508 C5.91358,11.3990532 5.40033252,11.9123007 4.77303005,11.9123007 Z M8.36576239,13.2239332 C7.73845992,13.2239332 7.22521244,12.7106857 7.22521244,12.0833832 C7.22521244,11.4560808 7.73845992,10.9428333 8.36576239,10.9428333 C8.99306486,10.9428333 9.50631234,11.4560808 9.50631234,12.0833832 C9.50631234,12.7106857 8.99306486,13.2239332 8.36576239,13.2239332 Z M10.9605135,9.23200835 C10.0195598,9.23200835 9.2496886,8.46213714 9.2496886,7.52118344 C9.2496886,6.58022973 10.0195598,5.81035852 10.9605135,5.81035852 C11.9014672,5.81035852 12.6713384,6.58022973 12.6713384,7.52118344 C12.6713384,8.46213714 11.929981,9.23200835 10.9605135,9.23200835 Z" id="形状"></path>
            </g>
        </g>
    </g>
</svg>