<?xml version="1.0" encoding="UTF-8"?>
<svg width="14px" height="11px" viewBox="0 0 14 11" version="1.1" xmlns="http://www.w3.org/2000/svg" xmlns:xlink="http://www.w3.org/1999/xlink">
    <!-- Generator: Sketch 52.2 (67145) - http://www.bohemiancoding.com/sketch -->
    <title>zhaoxiangji</title>
    <desc>Created with Sketch.</desc>
    <g id="Page-1" stroke="none" stroke-width="1" fill="none" fill-rule="evenodd">
        <g id="基础信息" transform="translate(-105.000000, -480.000000)" fill="#FFFFFF" fill-rule="nonzero">
            <g id="zhaoxiangji" transform="translate(105.000000, 480.000000)">
                <path d="M13.144137,1.75008666 L10.628195,1.75008666 C9.82028986,1.75008666 9.5030303,0.0171577123 8.67114625,0.0171577123 L5.03741765,0.0171577123 C4.47852437,0.0171577123 4.19815547,1.75008666 3.36073781,1.75008666 L0.844795784,1.75008666 C0.381818182,1.75008666 0.00553359684,2.1389948 0.00553359684,2.61750433 L0.00553359684,10.1306759 C0.00553359684,10.6091854 0.381818182,10.9980936 0.844795784,10.9980936 L13.1459816,10.9980936 C13.6089592,10.9980936 13.9852437,10.6091854 13.9852437,10.1306759 L13.9852437,2.61750433 C13.9833992,2.1389948 13.6089592,1.75008666 13.144137,1.75008666 Z M6.9944664,9.55303293 C5.14071146,9.55303293 3.63926219,8.00121317 3.63926219,6.08526863 C3.63926219,4.16932409 5.14071146,2.61750433 6.9944664,2.61750433 C8.84822134,2.61750433 10.3496706,4.16932409 10.3496706,6.08526863 C10.3496706,7.99930676 8.84637681,9.55303293 6.9944664,9.55303293 Z M11.0487484,3.48492201 C10.8163373,3.48492201 10.6300395,3.29046794 10.6300395,3.05216638 C10.6300395,2.81195841 10.8181818,2.61941075 11.0487484,2.61941075 C11.2811594,2.61941075 11.4674572,2.81386482 11.4674572,3.05216638 C11.4674572,3.29046794 11.2793149,3.48492201 11.0487484,3.48492201 Z M2.8,0.88457539 C2.8,0.724436742 2.67457181,0.594800693 2.51963109,0.594800693 L1.68036891,0.594800693 C1.52542819,0.594800693 1.4,0.724436742 1.4,0.88457539 L1.4,1.17435009 L2.79815547,1.17435009 C2.8,1.17244367 2.8,1.04280763 2.8,0.88457539 Z M6.9944664,3.48492201 C5.6055336,3.48492201 4.47852437,4.64974003 4.47852437,6.08526863 C4.47852437,7.52079723 5.6055336,8.68561525 6.9944664,8.68561525 C8.38339921,8.68561525 9.51040843,7.52079723 9.51040843,6.08526863 C9.51040843,4.64783362 8.38339921,3.48492201 6.9944664,3.48492201 Z" id="形状"></path>
            </g>
        </g>
    </g>
</svg>