<?xml version="1.0" encoding="UTF-8"?>
<svg width="20px" height="19px" viewBox="0 0 20 19" version="1.1" xmlns="http://www.w3.org/2000/svg" xmlns:xlink="http://www.w3.org/1999/xlink">
    <!-- Generator: Sketch 52.2 (67145) - http://www.bohemiancoding.com/sketch -->
    <title>分组 2</title>
    <desc>Created with Sketch.</desc>
    <g id="Page-1" stroke="none" stroke-width="1" fill="none" fill-rule="evenodd">
        <g id="分组-3-copy" fill-rule="nonzero">
            <g id="分组-2">
                <path d="M1.90649339,14.1788983 L4.49788599,16.7702909 C4.7364171,17.008822 4.7364171,17.3955574 4.49788599,17.6340885 L3.63408846,18.497886 C3.39555736,18.7364171 3.00882203,18.7364171 2.77029093,18.497886 L0.178898327,15.9064934 C-0.0596327756,15.6679623 -0.0596327756,15.281227 0.178898327,15.0426959 L1.04269586,14.1788983 C1.28122696,13.9403672 1.66796229,13.9403672 1.90649339,14.1788983 Z" id="矩形" fill="#ffffff"></path>
                <path d="M3.00060503,12.9208096 C2.99666137,12.7897595 3.0859993,12.7581298 3.15055131,12.7123775 C5.43552139,11.0928677 5.10739955,11.0000167 11.1084865,11.0000167 C12.67495,11.0000167 13.8524355,10.9939361 14.2965582,11.2138936 C14.4033281,11.2667727 14.4331114,11.3990795 14.3859082,11.6108138 C14.298507,11.8601995 13.0153135,12.0528575 10.5363279,12.1887876 C9.1150766,12.2826947 9.06450175,13.4411287 10.8254147,13.4411287 C12.5863276,13.4411287 14.5797375,13.4491077 15.2530458,13.0227815 C15.926354,12.5964552 17.7535817,11.0000167 18.956671,11.0000167 C19.2101382,11.0000167 19.2037937,11.3336972 19.0276663,11.6108138 C18.2844352,12.7802034 14.7262652,15.4040955 14.1505878,15.4040955 C13.6758554,15.4040955 11.8513556,15.4040955 8.67708864,15.4040955 C7.64738934,15.5449496 6.91772477,15.8167326 6.48809492,16.2194443 C6.32836023,16.2258679 6.35209713,16.2619627 6.12574004,16.1378945 C4.55370545,14.9465989 2.96446262,12.9460074 3.00060503,12.9208096 Z" id="路径-2" fill="#ffffff"></path>
                <path d="M5,9.97153918 L5,2 C5,1.44771525 5.44771525,1 6,1 L15,1 C15.5522847,1 16,1.44771525 16,2 L16,9.97153918" id="路径-3" stroke="#ffffff" stroke-linecap="round"></path>
                <path d="M7,4.30539855 L14.0384328,4.30539855" id="路径-4" stroke="#ffffff" stroke-linecap="round"></path>
                <path d="M7,6.30539855 L14.0384328,6.30539855" id="路径-4-copy" stroke="#ffffff" stroke-linecap="round"></path>
            </g>
        </g>
    </g>
</svg>