<?xml version="1.0" encoding="UTF-8"?>
<svg width="11px" height="13px" viewBox="0 0 11 13" version="1.1" xmlns="http://www.w3.org/2000/svg" xmlns:xlink="http://www.w3.org/1999/xlink">
    <!-- Generator: Sketch 52.2 (67145) - http://www.bohemiancoding.com/sketch -->
    <title>定位小标-飞行插件中</title>
    <desc>Created with Sketch.</desc>
    <g id="Page-1" stroke="none" stroke-width="1" fill="none" fill-rule="evenodd">
        <g id="飞行" transform="translate(-72.000000, -153.000000)" fill-rule="nonzero" stroke="#FFFFFF">
            <g id="形状-2" transform="translate(72.000000, 153.000000)">
                <path d="M5.50002341,1 C6.12201784,1 6.70637666,1.11032547 7.25339645,1.33061164 C7.80013528,1.55104372 8.27419413,1.84889768 8.67557301,2.22394009 C9.08686421,2.6086128 9.41042745,3.05392733 9.64630954,3.56039435 C9.88191065,4.06686138 10,4.61088663 10,5.19229501 C10,5.9800402 9.76411791,6.83118495 9.29263471,7.74561255 C8.82091735,8.66002556 8.30424331,9.50651566 7.74242528,10.2848348 C7.18040431,11.0634604 6.4330619,11.9684036 5.4999922,13 C4.56687566,11.9684036 3.81936155,11.0634604 3.25749668,10.2848348 C2.69547572,9.50651566 2.17886411,8.66002556 1.70738091,7.74561255 C1.23566356,6.83119954 1,5.98005479 1,5.19229501 C1,4.61088663 1.11780836,4.06686138 1.35369046,3.56039435 C1.58927596,3.05392733 1.91283919,2.6086128 2.32434894,2.22394009 C2.72560294,1.84888308 3.19966179,1.55102912 3.74660353,1.33061164 C4.29345161,1.11032547 4.87774799,1 5.50002341,1 Z M5.49995637,7 C5.70545555,7 5.89951143,6.96019225 6.08178962,6.88028458 C6.26400964,6.80056681 6.42040596,6.69500686 6.55137115,6.56338564 C6.69155494,6.42254654 6.80136387,6.26056916 6.88082705,6.07743887 C6.96015936,5.89438164 7,5.6996085 7,5.49295878 C7,5.28657201 6.96015936,5.09153593 6.88082705,4.9084787 C6.80136389,4.72533381 6.69155494,4.56825023 6.55137115,4.43664359 C6.4204205,4.29580449 6.26402419,4.18796566 6.08178962,4.11271803 C5.89951143,4.03763111 5.70545555,4 5.49995637,4 C5.29434088,4 5.10047402,4.03763111 4.91819583,4.11271803 C4.73597581,4.18796564 4.57936139,4.29578987 4.44855614,4.43664359 C4.30837235,4.56826483 4.19844709,4.72540686 4.11917295,4.9084787 C4.03963708,5.09160898 4,5.28657201 4,5.49295878 C4,5.6996085 4.03963708,5.89438164 4.11917295,6.07743887 C4.19844709,6.26056916 4.30837235,6.42254654 4.44855614,6.56338564 C4.57936139,6.69500688 4.73597581,6.80063986 4.91819583,6.88028458 C5.10040131,6.96019225 5.29434088,7 5.49995637,7 Z" id="形状"></path>
            </g>
        </g>
    </g>
</svg>