<?xml version="1.0" encoding="UTF-8"?>
<svg width="30px" height="30px" viewBox="0 0 30 30" version="1.1" xmlns="http://www.w3.org/2000/svg" xmlns:xlink="http://www.w3.org/1999/xlink">
    <!-- Generator: Sketch 52.2 (67145) - http://www.bohemiancoding.com/sketch -->
    <title>图层 copy</title>
    <desc>Created with Sketch.</desc>
    <g id="Page-1" stroke="none" stroke-width="1" fill="none" fill-rule="evenodd">
        <g id="场景服务web" transform="translate(-200.000000, -87.000000)" fill="#FFFFFF" fill-rule="nonzero">
            <g id="图层-copy" transform="translate(200.000000, 87.000000)">
                <path d="M28.5323364,13.1823657 L29.01308,13.4569983 C29.9984057,14.0207179 30.2963873,15.2023609 29.6765856,16.1021441 C29.5097159,16.3442544 29.2832499,16.5502289 29.01308,16.7056131 L16.1283569,24.06649 C15.4410127,24.4567574 14.5709065,24.4567574 13.8875355,24.06649 L0.98692004,16.6911588 C0.0015943159,16.1274392 -0.296387254,14.9457962 0.323414411,14.046013 C0.490284091,13.8039027 0.716750084,13.5979282 0.98692004,13.442544 L1.46766364,13.1679113 L13.8835624,20.26861 C14.5709065,20.6588774 15.4410127,20.6588774 16.1243838,20.26861 L28.5283633,13.1859793 L28.5323364,13.1823657 Z M28.5323364,18.8231751 L29.01308,19.0978078 C29.9984057,19.6615273 30.2963873,20.8431703 29.6765856,21.7429535 C29.5097159,21.9850638 29.2832499,22.1910383 29.01308,22.3464225 L16.1283569,29.7072994 C15.4410127,30.0975669 14.5709065,30.0975669 13.8875355,29.7072994 L0.98692004,22.3319682 C0.0015943159,21.7682486 -0.296387254,20.5866056 0.323414411,19.6868225 C0.490284091,19.4447121 0.716750084,19.2387377 0.98692004,19.0833534 L1.46766364,18.8087208 L13.8835624,25.9058058 C14.5709065,26.2960732 15.4410127,26.2960732 16.1243838,25.9058058 L28.5283633,18.8231751 L28.5323364,18.8231751 Z M16.1124645,0.299927728 L29.0091069,7.67525897 C29.9944326,8.23897856 30.2924142,9.42062154 29.6726125,10.3204047 C29.5057428,10.5625151 29.2792768,10.7684895 29.0091069,10.9238738 L16.1283569,18.2811371 C15.4410127,18.6714045 14.5709065,18.6714045 13.8875355,18.2811371 L0.98692004,10.9021922 C0.0015943159,10.3384727 -0.296387254,9.15682968 0.323414411,8.25704649 C0.490284091,8.01493616 0.716750084,7.8089617 0.98692004,7.65357745 L13.8756162,0.292700554 C14.5629604,-0.0975668514 15.4330665,-0.0975668514 16.1164376,0.292700554 L16.1124645,0.299927728 Z" id="Shape"></path>
            </g>
        </g>
    </g>
</svg>