<?xml version="1.0" encoding="UTF-8"?>
<svg width="131px" height="26px" viewBox="0 0 131 26" version="1.1" xmlns="http://www.w3.org/2000/svg" xmlns:xlink="http://www.w3.org/1999/xlink">
    <!-- Generator: Sketch 52.2 (67145) - http://www.bohemiancoding.com/sketch -->
    <title>Page 1</title>
    <desc>Created with Sketch.</desc>
    <g id="Page-1" stroke="none" stroke-width="1" fill="none" fill-rule="evenodd">
        <g id="场景服务web-copy" transform="translate(-81.000000, -11.000000)">
            <g id="Page-1" transform="translate(81.000000, 11.000000)">
                <polygon id="Fill-1" fill="#169DF9" points="0 26 65.5 26 65.5 0 0 0"></polygon>
                <g id="Group-39" transform="translate(4.792683, 2.437500)">
                    <path d="M21.5267234,14.5751989 C21.5267234,15.9019766 21.8695151,16.9821917 22.5554613,17.8158442 C23.2591819,18.6592689 24.146813,19.0809813 25.2165409,19.0809813 C26.3595427,19.0809813 27.2830853,18.6735515 27.9875314,17.8583161 C28.691252,17.0152672 29.043475,15.9448244 29.043475,14.646236 C29.043475,13.3483992 28.691252,12.2775806 27.9875314,11.4341558 C27.2830853,10.6098998 26.368974,10.1979598 25.2437466,10.1979598 C24.1827245,10.1979598 23.2961817,10.614786 22.582667,11.4484384 C21.8785837,12.2918632 21.5267234,13.3341166 21.5267234,14.5751989 M29.7392153,7.69625074 L31.9512195,7.69625074 L31.9512195,21.0749065 C31.9512195,21.3316173 31.7502601,21.5398425 31.5025069,21.5398425 L28.8512215,21.5398425 L28.8512215,20.0897834 C27.5801715,21.321845 26.2129947,21.9375 24.7500539,21.9375 C22.9029687,21.9375 21.3758225,21.2462976 20.1686152,19.8627653 C18.9704765,18.4506679 18.3719512,16.688271 18.3719512,14.5751989 C18.3719512,12.5000883 18.9704765,10.7711428 20.1686152,9.38761051 C21.3667539,8.00445407 22.865969,7.3125 24.6677114,7.3125 C26.2220633,7.3125 27.6168085,7.97588889 28.8512215,9.3022908 L28.8512215,8.61635045 C28.8512215,8.10819081 29.2487873,7.69625074 29.7392153,7.69625074" id="Fill-4" fill="#FFFFFF"></path>
                    <path d="M46.2889185,14.5751989 C46.2889185,15.9019766 46.6317102,16.9821917 47.3176565,17.8158442 C48.0213771,18.6592689 48.9090081,19.0809813 49.978736,19.0809813 C51.1217378,19.0809813 52.0452804,18.6735515 52.7497265,17.8583161 C53.4534471,17.0152672 53.8056702,15.9448244 53.8056702,14.646236 C53.8056702,13.3483992 53.4534471,12.2775806 52.7497265,11.4341558 C52.0452804,10.6098998 51.1311691,10.1979598 50.0059417,10.1979598 C48.9449196,10.1979598 48.0583768,10.614786 47.3448622,11.4484384 C46.6407788,12.2918632 46.2889185,13.3341166 46.2889185,14.5751989 M54.5014104,7.69625074 L56.7134146,7.69625074 L56.7134146,21.0749065 C56.7134146,21.3316173 56.5124552,21.5398425 56.2647021,21.5398425 L53.6134166,21.5398425 L53.6134166,20.0897834 C52.3423666,21.321845 50.9751898,21.9375 49.512249,21.9375 C47.6651638,21.9375 46.1380176,21.2462976 44.9308103,19.8627653 C43.7326716,18.4506679 43.1341463,16.688271 43.1341463,14.5751989 C43.1341463,12.5000883 43.7326716,10.7711428 44.9308103,9.38761051 C46.128949,8.00445407 47.6281641,7.3125 49.4299065,7.3125 C50.9842584,7.3125 52.3790036,7.97588889 53.6134166,9.3022908 L53.6134166,8.61635045 C53.6134166,8.10819081 54.0109825,7.69625074 54.5014104,7.69625074" id="Fill-6" fill="#FFFFFF"></path>
                    <path d="M38.4830259,11.2107146 L38.4830259,21.9375 L36.0657312,21.9375 C35.7999821,21.9375 35.5843164,21.7024768 35.5843164,21.4128748 L35.5843164,11.2107146 L34.347561,11.2107146 L34.347561,8.26234304 L35.5843164,8.26234304 L35.5843164,3.25 L37.6609072,3.25 C38.1150656,3.25 38.4830259,3.65098744 38.4830259,4.14590991 L38.4830259,8.26234304 L40.7378049,8.26234304 L40.7378049,11.2107146 L38.4830259,11.2107146 Z" id="Fill-8" fill="#FFFFFF"></path>
                    <path d="M3.11756323,17.9231772 C3.11756323,18.4217738 3.4982803,18.8260617 3.96780775,18.8260617 L4.52225351,18.8260617 C5.92269787,18.8260617 7.08678629,18.6697571 8.01451876,18.3571479 C8.94189741,18.0253764 9.78081948,17.499727 10.5298697,16.7798241 C12.0640604,15.2926761 12.8311557,13.3557766 12.8311557,10.9683743 C12.8311557,8.56293675 12.072906,6.61175945 10.5567605,5.11484239 C9.19169875,3.77949016 7.18019642,3.11143832 4.52225351,3.11143832 L3.96568479,3.11143832 C3.49721882,3.11143832 3.11756323,3.51459896 3.11756323,4.01206839 L3.11756323,17.9231772 Z M0,21.9375 L0,0 L4.33507942,0 C6.41310108,0 8.05485496,0.217924674 9.25892574,0.653398289 C10.5521607,1.07985433 11.7250948,1.80464174 12.777728,2.82738478 C14.9095312,4.89278466 15.9756098,7.60594685 15.9756098,10.9683743 C15.9756098,14.3409465 14.8649491,17.0687622 12.6439816,19.152573 C11.5287212,20.1944783 10.3603869,20.9192657 9.13862481,21.3265594 C7.99647362,21.7338531 6.37736463,21.9375 4.28165165,21.9375 L0,21.9375 Z" id="Fill-10" fill="#FFFFFF"></path>
                    <path d="M74.0641267,12.7560475 C74.1672297,12.7560475 74.2440162,12.6500556 74.2140947,12.5474464 C73.7566201,10.9808714 72.7439755,10.1975839 71.1765213,10.1975839 C70.8034038,10.1975839 70.4537187,10.2569694 70.1263847,10.3753646 C69.7994111,10.4937598 69.5016381,10.6643992 69.2337866,10.886907 C68.9655745,11.1097906 68.735936,11.3774013 68.5452315,11.6901149 C68.388414,11.9468258 68.262239,12.2324776 68.1667064,12.5470706 C68.1357034,12.6500556 68.2132109,12.7560475 68.3166745,12.7560475 L74.0641267,12.7560475 Z M77.2678906,15.3712655 L68.0762209,15.3712655 C67.9842934,15.3712655 67.9103909,15.4562094 67.9197639,15.5513014 C68.0250299,16.6040789 68.373994,17.449007 68.968098,18.08571 C69.5950076,18.7494748 70.3989227,19.0809813 71.3805643,19.0809813 C72.1441034,19.0809813 72.7756995,18.891549 73.2757131,18.5119327 C73.6160251,18.2492081 73.9895032,17.8312543 74.3954262,17.2580713 C74.7303308,16.7852423 75.3475068,16.6386578 75.8395894,16.9246855 L77.4019966,17.8335095 C77.4787831,17.8782366 77.5047391,17.982725 77.4593161,18.0612793 C77.0840355,18.7096338 76.6889275,19.2700377 76.2747129,19.7413633 C75.8291349,20.2487712 75.3521933,20.6652216 74.8431673,20.9925937 C74.3341412,21.3195899 73.7843786,21.5582596 73.1935191,21.7101061 C72.60302,21.8615767 71.9620509,21.9375 71.2716933,21.9375 C69.2903851,21.9375 67.6998589,21.274487 66.5004752,19.9477092 C65.3007311,18.6119108 64.7012195,16.8401175 64.7012195,14.6319534 C64.7012195,12.4433338 65.2823456,10.6715405 66.4456792,9.3165734 C67.6180254,7.98039918 69.1721411,7.3125 71.1080263,7.3125 C73.0619365,7.3125 74.6066792,7.96160629 75.7429754,9.25944302 C76.869538,10.5482592 77.4333601,12.3343351 77.4333601,14.6180466 L77.4225451,15.2130294 C77.4207426,15.3009801 77.3522476,15.3712655 77.2678906,15.3712655 Z" id="Fill-12" fill="#ED1841"></path>
                    <path d="M82.2340405,14.5751989 C82.2340405,15.9019766 82.5768322,16.9821917 83.2627784,17.8158442 C83.966499,18.6592689 84.8541301,19.0809813 85.9238579,19.0809813 C87.0668598,19.0809813 87.9904024,18.6735515 88.6948485,17.8583161 C89.3985691,17.0152672 89.7507921,15.9448244 89.7507921,14.646236 C89.7507921,13.3483992 89.3985691,12.2775806 88.6948485,11.4341558 C87.9904024,10.6098998 87.0762911,10.1979598 85.9510636,10.1979598 C84.8900416,10.1979598 84.0034987,10.614786 83.2899841,11.4484384 C82.5859008,12.2918632 82.2340405,13.3341166 82.2340405,14.5751989 M90.4465324,7.69625074 L92.6585366,7.69625074 L92.6585366,21.0749065 C92.6585366,21.3316173 92.4575772,21.5398425 92.209824,21.5398425 L89.5585385,21.5398425 L89.5585385,20.0897834 C88.2874886,21.321845 86.9203118,21.9375 85.457371,21.9375 C83.6102858,21.9375 82.0831396,21.2462976 80.8759323,19.8627653 C79.6777935,18.4506679 79.0792683,16.688271 79.0792683,14.5751989 C79.0792683,12.5000883 79.6777935,10.7711428 80.8759323,9.38761051 C82.074071,8.00445407 83.5732861,7.3125 85.3750284,7.3125 C86.9293804,7.3125 88.3241256,7.97588889 89.5585385,9.3022908 L89.5585385,8.61635045 C89.5585385,8.10819081 89.9561044,7.69625074 90.4465324,7.69625074" id="Fill-14" fill="#ED1841"></path>
                    <path d="M110.37327,11.2107146 L110.37327,21.9375 L107.955975,21.9375 C107.690226,21.9375 107.47456,21.7024768 107.47456,21.4128748 L107.47456,11.2107146 L106.237805,11.2107146 L106.237805,8.26234304 L107.47456,8.26234304 L107.47456,3.25 L109.551151,3.25 C110.00531,3.25 110.37327,3.65098744 110.37327,4.14590991 L110.37327,8.26234304 L112.628049,8.26234304 L112.628049,11.2107146 L110.37327,11.2107146 Z" id="Fill-16" fill="#ED1841"></path>
                    <path d="M115.02439,0 L117.167596,0 C117.642257,0 118.026926,0.401545933 118.026926,0.897031512 L118.026926,7.96829224 C118.026926,8.14769854 118.222789,8.24826922 118.36007,8.14069911 C119.338329,7.37628828 120.406227,7.18030439 121.56341,7.18030439 C123.031151,7.18030439 124.20598,7.67726353 125.086483,8.67081342 C125.833941,9.53432138 126.207317,10.9135764 126.207317,12.8082101 L126.207317,21.125 L123.204782,21.125 L123.204782,13.1007124 C123.204782,12.014328 123.019858,11.2270769 122.650717,10.7393276 C122.281576,10.2519466 121.687986,10.0080719 120.869241,10.0080719 C119.819695,10.0080719 118.955778,10.5820247 118.52876,11.2598637 C118.110212,11.9469125 118.026926,12.8918348 118.026926,14.5635921 L118.026926,21.125 L115.140144,21.125 C115.076268,21.125 115.02439,21.0708466 115.02439,21.0041678 L115.02439,0 Z" id="Fill-18" fill="#ED1841"></path>
                    <path d="M103.841463,8.66015488 C103.132603,8.31764088 102.340284,8.125 101.503865,8.125 C100.245775,8.125 99.0904606,8.56309065 98.1665735,9.2920021 L98.1560044,9.29348967 L98.1560044,9.08820441 C98.1560044,8.61961848 97.7838984,8.23991512 97.3246882,8.23991512 L95.1736896,8.23991512 C95.1080881,8.23991512 95.054878,8.29421159 95.054878,8.36115243 L95.054878,21.8162627 C95.054878,21.8832035 95.1080881,21.9375 95.1736896,21.9375 L97.6443131,21.9375 C97.9267638,21.9375 98.1560044,21.7035789 98.1560044,21.4153614 L98.1560044,18.1040208 L98.1560044,14.835448 C98.1574622,14.8034652 98.1556399,14.6997069 98.1556399,14.6792527 C98.1556399,12.6539202 99.4199257,11.01201 100.979418,11.01201 C101.465233,11.01201 101.920799,11.1741556 102.31951,11.4549352 C102.37928,11.4973311 102.460553,11.4783645 102.492989,11.4121675 L103.841463,8.66015488 Z" id="Fill-20" fill="#ED1841"></path>
                </g>
            </g>
        </g>
    </g>
</svg>