<?xml version="1.0" encoding="UTF-8"?>
<svg width="30px" height="30px" viewBox="0 0 30 30" version="1.1" xmlns="http://www.w3.org/2000/svg" xmlns:xlink="http://www.w3.org/1999/xlink">
    <!-- Generator: Sketch 52.2 (67145) - http://www.bohemiancoding.com/sketch -->
    <title>点标注-大</title>
    <desc>Created with Sketch.</desc>
    <g id="Page-1" stroke="none" stroke-width="1" fill="none" fill-rule="evenodd">
        <g id="画板" transform="translate(-1310.000000, -88.000000)" fill="#FFFFFF">
            <g id="点标注" transform="translate(1310.000000, 88.000000)">
                <g id="定位" transform="translate(7.000000, 1.000000)">
                    <path d="M8.50004421,0 C9.67492259,0 10.7787115,0.211457152 11.8119711,0.633672305 C12.8447,1.05616712 13.7401445,1.62705389 14.4983046,2.34588517 C15.275188,3.08317454 15.886363,3.93669405 16.331918,4.90742251 C16.7769423,5.87815097 17,6.92086603 17,8.03523211 C17,9.54507705 16.5544449,11.1764378 15.6638656,12.9290907 C14.7728439,14.6817157 13.796904,16.304155 12.7356922,17.7959334 C11.674097,19.288299 10.2624503,21.0227735 8.49998526,23 C6.73743181,21.0227735 5.3254607,19.288299 4.2641604,17.7959334 C3.20256525,16.304155 2.22674333,14.6817157 1.33616395,12.9290907 C0.445142277,11.1764658 0,9.54510501 0,8.03523211 C0,6.92086603 0.222526909,5.87815097 0.668081974,4.90742251 C1.11307681,3.93669405 1.72425181,3.08317454 2.50154799,2.34588517 C3.25947222,1.62702591 4.15491672,1.05613914 5.18802889,0.633672305 C6.22096415,0.211457152 7.32463508,0 8.50004421,0 Z M8.49991759,11.5 C8.8880827,11.5 9.2546327,11.4237018 9.59893596,11.2705454 C9.94312933,11.117753 10.2385446,10.9154298 10.4859233,10.6631558 C10.7507149,10.3932142 10.9581318,10.0827575 11.1082289,9.73175784 C11.2580788,9.38089813 11.3333333,9.00758295 11.3333333,8.61150434 C11.3333333,8.21592969 11.2580788,7.84211054 11.1082289,7.49125083 C10.9581318,7.14022313 10.7507149,6.83914627 10.4859233,6.58690022 C10.2385721,6.31695861 9.94315681,6.11026751 9.59893596,5.9660429 C9.2546327,5.8221263 8.8880827,5.75 8.49991759,5.75 C8.11153277,5.75 7.74533981,5.8221263 7.40103656,5.9660429 C7.05684319,6.11026748 6.76101596,6.31693059 6.51393937,6.58690022 C6.24914777,6.83917426 6.04151116,7.14036314 5.89177112,7.49125083 C5.7415367,7.84225055 5.66666667,8.21592969 5.66666667,8.61150434 C5.66666667,9.00758295 5.7415367,9.38089813 5.89177112,9.73175784 C6.04151116,10.0827575 6.24914777,10.3932142 6.51393937,10.6631558 C6.76101596,10.9154298 7.05684319,11.1178931 7.40103656,11.2705454 C7.74520247,11.4237018 8.11153277,11.5 8.49991759,11.5 Z" id="形状" fill-rule="nonzero"></path>
                    <circle id="椭圆形" cx="8.5" cy="26.5" r="2.5"></circle>
                </g>
            </g>
        </g>
    </g>
</svg>