<?xml version="1.0" encoding="UTF-8"?>
<svg width="30px" height="30px" viewBox="0 0 30 30" version="1.1" xmlns="http://www.w3.org/2000/svg" xmlns:xlink="http://www.w3.org/1999/xlink">
    <!-- Generator: Sketch 52.2 (67145) - http://www.bohemiancoding.com/sketch -->
    <title>添加模型-大</title>
    <desc>Created with Sketch.</desc>
    <g id="Page-1" stroke="none" stroke-width="1" fill="none" fill-rule="evenodd">
        <g id="画板" transform="translate(-1262.000000, -88.000000)" fill="#FFFFFF" fill-rule="nonzero">
            <g id="添加模型" transform="translate(1262.000000, 88.000000)">
                <path d="M27.9923077,10.1786217 L18.0876923,15.5463412 C17.1730769,16.0363405 16.6153846,17.0163391 16.6153846,18.1077012 L16.6153846,28.4867772 C16.6153846,29.6004119 17.7084615,30.3354109 18.6230769,29.8231389 L28.5276923,24.4554193 C29.42,23.96542 30,22.9854214 30,21.8940594 L30,11.5372561 C30,10.4013487 28.9069231,9.68862241 27.9923077,10.1786217 Z M12.9123077,15.5240686 L3.00769231,10.1786217 C2.09307692,9.68862241 1,10.4013487 1,11.5149834 L1,21.9386048 C1,23.0299668 1.55769231,24.0099654 2.47230769,24.4999647 L12.3769231,29.8454116 C13.2915385,30.3354109 14.3846154,29.6004119 14.3846154,28.4867772 L14.3846154,18.0854285 C14.3846154,16.9940664 13.8269231,16.0140678 12.9123077,15.5240686 Z M27.0776923,7.75089793 C27.5461538,7.50589828 27.7692308,7.08271707 27.7246154,6.68180856 C27.7692308,6.25862735 27.5461538,5.85771884 27.0776923,5.61271919 L16.9946154,0.356363123 C16.5484615,0.111363476 16.0130769,0 15.4776923,0 C14.9423077,0 14.4069231,0.111363476 13.9607692,0.356363123 L3.87769231,5.5904465 C3.40923077,5.83544614 3.20846154,6.25862735 3.23076923,6.65953586 C3.20846154,7.08271707 3.40923077,7.50589828 3.87769231,7.75089793 L13.9607692,12.9849813 C14.4069231,13.2299809 14.9423077,13.3413444 15.4776923,13.3413444 C16.0130769,13.3413444 16.5484615,13.2299809 16.9946154,12.9849813 L27.0776923,7.75089793 Z" id="形状"></path>
            </g>
        </g>
    </g>
</svg>