<?xml version="1.0" encoding="UTF-8"?>
<svg width="24px" height="26px" viewBox="0 0 24 26" version="1.1" xmlns="http://www.w3.org/2000/svg" xmlns:xlink="http://www.w3.org/1999/xlink">
    <!-- Generator: Sketch 52.2 (67145) - http://www.bohemiancoding.com/sketch -->
    <title>基本资料 copy</title>
    <desc>Created with Sketch.</desc>
    <g id="Page-1" stroke="none" stroke-width="1" fill="none" fill-rule="evenodd">
        <g id="场景服务web" transform="translate(-35.000000, -89.000000)" fill="#FFFFFF" fill-rule="nonzero">
            <g id="基本资料-copy" transform="translate(35.000000, 89.000000)">
                <path d="M21.1197885,26 L2.88021148,26 C1.29656616,26 0,24.8299191 0,23.4006296 L2.66379854e-08,8.23395853 C2.66379854e-08,7.49657707 0.624290513,6.93375301 1.44065592,6.93375301 L6.24067739,6.93375301 C7.05596932,6.93375301 7.68023295,6.36986236 7.68023295,5.63354749 L7.68023295,1.30023152 C7.68023295,0.563890654 8.3525623,0 9.11981537,0 L21.1197885,0 C22.7034338,0 24,1.1700809 24,2.60043704 L24,23.4006556 C24,24.8299191 22.703407,26 21.1197885,26 Z M7.52222222,8.66666667 C6.80425205,8.66666667 6.22222222,9.24869649 6.22222222,9.96666667 C6.22222222,10.6846368 6.80425205,11.2666667 7.52222222,11.2666667 L19.1444444,11.2666667 C19.8624146,11.2666667 20.4444444,10.6846368 20.4444444,9.96666667 C20.4444444,9.24869649 19.8624146,8.66666667 19.1444444,8.66666667 L7.52222222,8.66666667 Z M7.52222222,13.8666667 C6.80425205,13.8666667 6.22222222,14.4486965 6.22222222,15.1666667 C6.22222222,15.8846368 6.80425205,16.4666667 7.52222222,16.4666667 L19.1444444,16.4666667 C19.8624146,16.4666667 20.4444444,15.8846368 20.4444444,15.1666667 C20.4444444,14.4486965 19.8624146,13.8666667 19.1444444,13.8666667 L7.52222222,13.8666667 Z M7.52222222,19.0666667 C6.80425205,19.0666667 6.22222222,19.6486965 6.22222222,20.3666667 C6.22222222,21.0846368 6.80425205,21.6666667 7.52222222,21.6666667 L19.1444444,21.6666667 C19.8624146,21.6666667 20.4444444,21.0846368 20.4444444,20.3666667 C20.4444444,19.6486965 19.8624146,19.0666667 19.1444444,19.0666667 L7.52222222,19.0666667 Z M4.75195578,5.67693971 L1.05647922,5.67693971 C0.528239612,5.67693971 0.384149875,5.3733243 0.720341387,5.02735725 L5.52033601,0.563890628 C5.90451271,0.216883003 6.19266536,0.347007599 6.19266536,0.823073248 L6.19266536,4.37668216 C6.19263853,5.11302305 5.56834804,5.67693971 4.75195578,5.67693971 Z" id="Shape"></path>
            </g>
        </g>
    </g>
</svg>