<?xml version="1.0" encoding="UTF-8"?>
<svg width="30px" height="30px" viewBox="0 0 30 30" version="1.1" xmlns="http://www.w3.org/2000/svg" xmlns:xlink="http://www.w3.org/1999/xlink">
    <!-- Generator: Sketch 52.2 (67145) - http://www.bohemiancoding.com/sketch -->
    <title>单体化-大</title>
    <desc>Created with Sketch.</desc>
    <g id="Page-1" stroke="none" stroke-width="1" fill="none" fill-rule="evenodd">
        <g id="画板" transform="translate(-1262.000000, -162.000000)" fill="#FFFFFF" fill-rule="nonzero">
            <g id="单体化" transform="translate(1262.000000, 162.000000)">
                <path d="M30,17.2867982 L30,23.0872534 C30,23.4248862 29.91,23.7359636 29.7375,24.0204856 C29.56125,24.3088012 29.325,24.5288316 29.0175,24.676783 L22.84125,27.8027314 C22.60875,27.9317147 22.35,28 22.0575,28 C21.765,28 21.5025,27.9355083 21.27375,27.8027314 L15.0975,24.676783 C15.06,24.6578149 15.03,24.6388467 15,24.6236722 C14.98125,24.6426404 14.9475,24.6616085 14.9025,24.676783 L8.72625,27.8027314 C8.49375,27.9317147 8.235,28 7.9425,28 C7.64625,28 7.3875,27.9355083 7.15875,27.8027314 L0.9825,24.676783 C0.67875,24.5288316 0.43875,24.3088012 0.2625,24.0204856 C0.08625,23.73217 0,23.4210926 0,23.0872534 L0,17.2867982 C0,16.9339909 0.0975,16.607739 0.3,16.3118361 C0.49875,16.0121396 0.7575,15.7883156 1.07625,15.6403642 L7.0575,13.0493171 L7.0575,7.46509863 C7.0575,7.11229135 7.155,6.78603945 7.3575,6.49013657 C7.55625,6.19044006 7.815,5.96661608 8.13375,5.81866464 L14.31,3.14036419 C14.52,3.04931715 14.7525,3 15.00375,3 C15.25125,3 15.48375,3.04931715 15.6975,3.14036419 L21.87375,5.81866464 C22.19625,5.96661608 22.45875,6.19423369 22.65,6.49013657 C22.84875,6.78983308 22.95,7.11608498 22.95,7.46509863 L22.95,13.0455235 L28.93125,15.6365706 C29.265,15.784522 29.52375,16.0121396 29.715,16.3080425 C29.90625,16.6039454 30,16.9301973 30,17.2867982 Z M7.9425,19.4339909 L13.51125,17.0212443 L7.9425,14.6122914 L2.37375,17.0212443 L7.9425,19.4339909 Z M8.82375,25.7617602 L14.11875,23.0834598 L14.11875,18.7094082 L8.82375,20.9969651 L8.82375,25.7617602 Z M15,10.0599393 L21.0825,7.41957511 L15,4.78300455 L8.9175,7.41957511 L15,10.0599393 Z M15.88125,15.3482549 L21.17625,13.0493171 L21.17625,9.33915023 L15.88125,11.6305008 L15.88125,15.3482549 Z M22.0575,19.4339909 L27.62625,17.0212443 L22.0575,14.6122914 L16.48875,17.0212443 L22.0575,19.4339909 Z M22.9425,25.7617602 L28.2375,23.0834598 L28.2375,18.7094082 L22.9425,20.9969651 L22.9425,25.7617602 Z" id="形状"></path>
            </g>
        </g>
    </g>
</svg>