<?xml version="1.0" encoding="UTF-8"?>
<svg width="30px" height="30px" viewBox="0 0 30 30" version="1.1" xmlns="http://www.w3.org/2000/svg" xmlns:xlink="http://www.w3.org/1999/xlink">
    <!-- Generator: Sketch 52.2 (67145) - http://www.bohemiancoding.com/sketch -->
    <title>测量-大</title>
    <desc>Created with Sketch.</desc>
    <g id="Page-1" stroke="none" stroke-width="1" fill="none" fill-rule="evenodd">
        <g id="画板" transform="translate(-1217.000000, -88.000000)" fill="#FFFFFF" fill-rule="nonzero">
            <g id="测量" transform="translate(1217.000000, 88.000000)">
                <path d="M29.6686303,8.03965459 L22.9603472,1.33136192 C22.5183497,0.889363823 21.8025928,0.889728271 21.3609929,1.33136192 L1.33136144,21.3609888 C0.889728428,21.8026225 0.889363981,22.5183473 1.33136144,22.9603454 L8.03964453,29.6686381 C8.48164199,30.1106362 9.19739894,30.1102717 9.63899882,29.6686381 L29.6685971,9.63901116 C30.1102633,9.19741065 30.1106609,8.48165268 29.6686303,8.03965459 Z M8.83935481,27.2696032 L3.73042604,22.1606671 L5.01662838,20.8744629 L5.89207558,21.7499114 C6.33407304,22.1919095 7.04982999,22.191545 7.49142987,21.7499114 C7.93306288,21.3082777 7.93342733,20.5925529 7.49142987,20.1505548 L6.61598267,19.2751064 L7.90218502,17.9889022 L8.77763222,18.8643506 C9.21962968,19.3063487 9.93538662,19.3059842 10.3769865,18.8643506 C10.8186195,18.422717 10.818984,17.7069921 10.3769865,17.2649609 L9.5015393,16.3895124 L10.7877417,15.1033083 L11.6631888,15.9787567 C12.1051863,16.4207548 12.8209433,16.4203904 13.2625431,15.9787567 C13.7041761,15.5371231 13.7045737,14.8213982 13.2625431,14.379367 L12.3870959,13.5039186 L13.6732983,12.2177144 L14.5487455,13.0931628 C14.9907429,13.5351609 15.7064999,13.5347965 16.1480998,13.0931628 C16.5897328,12.6515292 16.5901304,11.9358043 16.1480998,11.4937731 L15.2726526,10.6183247 L16.558855,9.33212049 L17.4343021,10.2075689 C17.8762996,10.649567 18.5920566,10.6492026 19.0336564,10.2075689 C19.4752894,9.76593529 19.4756539,9.05021046 19.0336564,8.60821236 L18.1582092,7.73276392 L19.4440471,6.44692418 L20.3194943,7.32237259 C20.7614918,7.76440382 21.4772487,7.76400624 21.9188486,7.32237259 C22.3604816,6.88073895 22.3608461,6.16501412 21.9188486,5.72301602 L21.0434014,4.84756758 L22.1605375,3.7304299 L27.2694663,8.83936601 L8.83935481,27.2696032 Z" id="形状"></path>
            </g>
        </g>
    </g>
</svg>