<?xml version="1.0" encoding="UTF-8"?>
<svg width="32px" height="26px" viewBox="0 0 32 26" version="1.1" xmlns="http://www.w3.org/2000/svg" xmlns:xlink="http://www.w3.org/1999/xlink">
    <!-- Generator: Sketch 52.2 (67145) - http://www.bohemiancoding.com/sketch -->
    <title>插件管理</title>
    <desc>Created with Sketch.</desc>
    <g id="Page-1" stroke="none" stroke-width="1" fill="none" fill-rule="evenodd">
        <g id="场景服务web" transform="translate(-143.000000, -89.000000)" fill="#FFFFFF">
            <g id="拼图-copy" transform="translate(159.000000, 102.000000) scale(-1, 1) translate(-159.000000, -102.000000) translate(143.000000, 89.000000)">
                <path d="M27.969727,12.1212093 L26.1515515,12.1212093 L26.1515515,7.27273147 C26.1515515,5.93333207 25.0666973,4.84847787 23.7272979,4.84847787 L18.8787907,4.84847787 L18.8787907,3.03030234 C18.8787907,1.35756441 17.5212263,0 15.8484883,0 C14.1757504,0 12.818186,1.35756441 12.818186,3.03030234 L12.818186,4.84847787 L7.96970812,4.84847787 C6.63030872,4.84847787 5.5575743,5.9333321 5.5575743,7.27273147 L5.54545455,23.0302919 C5.54545455,24.3696912 6.63030878,25.4545455 7.96970815,25.4545455 L12.5757606,25.4545455 L12.5757606,23.6363699 C12.5757606,21.8303142 14.0424326,20.3636422 15.8484883,20.3636422 C17.6545441,20.3636422 19.121216,21.8303142 19.121216,23.6363699 L19.121216,25.4545455 L23.7272685,25.4545455 C25.0666679,25.4545455 26.1515221,24.3696912 26.1515221,23.0302919 L26.1515221,18.1818434 L27.9696977,18.1818434 C29.6424356,18.1818434 31,16.8242789 31,15.151541 C31,13.4788031 29.6424356,12.1212093 27.969727,12.1212093 Z" id="Shape" fill-rule="nonzero"></path>
                <path d="M1.90909091,9 L9.18181818,9 C10.23618,9 11.0909091,9.85472911 11.0909091,10.9090909 C11.0909091,11.9634527 10.23618,12.8181818 9.18181818,12.8181818 L1.90909091,12.8181818 C0.854729114,12.8181818 0,11.9634527 0,10.9090909 C-2.33146835e-16,9.85472911 0.854729114,9 1.90909091,9 Z" id="Rectangle" stroke="#333333" stroke-width="2"></path>
                <rect id="Rectangle-Copy" stroke="#333333" stroke-width="2" x="0" y="13.5454545" width="11.0909091" height="3.81818182" rx="1.90909091"></rect>
                <rect id="Rectangle-Copy-2" stroke="#333333" stroke-width="2" x="0" y="18.0909091" width="11.0909091" height="3.81818182" rx="1.90909091"></rect>
            </g>
        </g>
    </g>
</svg>