<?xml version="1.0" encoding="UTF-8"?>
<svg width="30px" height="29px" viewBox="0 0 30 29" version="1.1" xmlns="http://www.w3.org/2000/svg" xmlns:xlink="http://www.w3.org/1999/xlink">
    <!-- Generator: Sketch 52.2 (67145) - http://www.bohemiancoding.com/sketch -->
    <title>场景</title>
    <desc>Created with Sketch.</desc>
    <g id="Page-1" stroke="none" stroke-width="1" fill="none" fill-rule="evenodd">
        <g id="场景服务web" transform="translate(-88.000000, -87.000000)" fill="#FFFFFF" fill-rule="nonzero">
            <g id="地球-copy" transform="translate(88.000000, 87.000000)">
                <path d="M19.5226883,23.3386692 C19.153336,22.4674074 17.9343597,20.977872 15.8992028,18.911161 C15.3560318,18.3585718 15.3909832,17.9345612 15.5850423,16.6748063 L15.6073937,16.5325066 C15.7392909,15.669484 15.9606274,15.1592401 18.9606844,14.6983334 C20.4847734,14.4644825 20.8855249,15.0539678 21.4411953,15.8705091 C21.502687,15.9608456 21.5641116,16.049705 21.6269102,16.1385644 C22.1546999,16.8854494 22.5456999,17.0563404 23.1363887,17.316222 C23.4010207,17.432491 23.7311992,17.5788939 24.1737718,17.8222971 C25.2224815,18.4022958 25.2224815,19.0574327 25.2224815,20.4936261 L25.2224815,20.6563764 C25.2224815,22.9516205 24.3497687,24.1936166 24.0090679,24.5915964 C22.7090969,25.6763242 21.2003221,26.5311403 19.5471174,27.0919031 C20.3667496,25.610607 19.739769,23.8516705 19.5226547,23.3386692 L19.5226883,23.3386692 Z M15.0000168,1.16127758 C17.1391901,1.16127758 19.1652657,1.63314815 20.9749308,2.47713175 C19.9806756,3.08582017 18.5522925,4.03783341 17.9644186,4.81741283 C17.7466006,5.1060499 17.5595118,5.37955429 17.3863297,5.63126237 C16.8124632,6.46838538 16.536002,6.84177861 16.0067378,6.90605149 C15.7443175,6.93746576 15.3923907,6.91557096 15.0195869,6.89236314 C14.019836,6.82946895 12.6521738,6.74461431 12.2143597,7.8949609 C11.936491,8.6239558 11.8876327,10.6031533 12.7868858,11.6304032 C12.9307462,11.794565 12.9585934,12.0981706 12.8608769,12.4388037 C12.7323643,12.8860878 12.4727253,13.1582791 12.3917305,13.2143455 C12.2366776,13.1281779 11.9274097,12.780717 11.7179693,12.5441088 C11.2131343,11.9764526 10.5834394,11.2693197 9.76940339,11.0504374 C9.47340554,10.9711303 9.14801903,10.9055116 8.83248459,10.8412059 C7.94928304,10.6620099 6.94886193,10.4581947 6.7163999,9.97818331 C6.54673647,9.62661922 6.54744019,9.14243898 6.5481104,8.63091487 C6.5481104,7.98257291 6.5481104,7.24940914 6.21997603,6.5367943 C5.93517067,5.91720773 5.43318406,5.58205652 4.90606461,5.41796046 C7.42779335,2.80128632 11.0184721,1.16127758 15.0000838,1.16127758 L15.0000168,1.16127758 Z M0,14.4999672 C0,22.5084724 6.71562916,29 15.0000168,29 C23.2844379,29 30,22.5085053 30,14.4999672 C30,6.49156038 23.2844379,0 15.0000168,0 C6.71559565,0 1.42863661e-15,6.49156038 0,14.4999672 Z" id="Shape"></path>
            </g>
        </g>
    </g>
</svg>