<?xml version="1.0" standalone="no"?><!DOCTYPE svg PUBLIC "-//W3C//DTD SVG 1.1//EN" "http://www.w3.org/Graphics/SVG/1.1/DTD/svg11.dtd"><svg t="1540627872092" class="icon" style="" viewBox="0 0 1024 1024" version="1.1" xmlns="http://www.w3.org/2000/svg" p-id="8670" xmlns:xlink="http://www.w3.org/1999/xlink" width="32" height="32"><defs><style type="text/css"></style></defs><path d="M992 0H32C12.8 0 0 12.8 0 32v960c0 19.2 12.8 32 32 32h960c19.2 0 32-12.8 32-32V32c0-19.2-12.8-32-32-32zM960 64v684.8l-166.4-192c-6.4-6.4-12.8-12.8-25.6-12.8s-19.2 6.4-25.6 12.8l-147.2 160-268.8-358.4c-6.4-6.4-12.8-12.8-25.6-12.8s-19.2 6.4-25.6 12.8L64 665.6V64h896zM64 960v-179.2l236.8-345.6L576 787.2c6.4 6.4 12.8 12.8 25.6 12.8s19.2-6.4 25.6-12.8L768 627.2l192 217.6V960H64z" fill="#1296db" p-id="8671"></path><path d="M704 467.2c76.8 0 147.2-64 147.2-147.2s-64-147.2-147.2-147.2S563.2 243.2 563.2 320s64 147.2 140.8 147.2z m0-224c44.8 0 83.2 38.4 83.2 83.2s-38.4 76.8-83.2 76.8S627.2 364.8 627.2 320s32-76.8 76.8-76.8z" fill="#1296db" p-id="8672"></path></svg>