<?xml version="1.0" encoding="UTF-8"?>
<svg width="10px" height="20px" viewBox="0 0 10 20" version="1.1" xmlns="http://www.w3.org/2000/svg" xmlns:xlink="http://www.w3.org/1999/xlink">
    <!-- Generator: Sketch 52.2 (67145) - http://www.bohemiancoding.com/sketch -->
    <title>合并形状 2</title>
    <desc>Created with Sketch.</desc>
    <g id="Page-1" stroke="none" stroke-width="1" fill="none" fill-rule="evenodd">
        <g id="绘制面插件" transform="translate(-151.000000, -78.000000)" fill="#DEDEDE">
            <g id="合并形状-2" transform="translate(151.000000, 78.000000)">
                <path d="M5.79365079,11.8363435 L5.79365079,13.2429288 L5.79365079,17.3560675 L8.65079365,14.7820256 C8.96825397,14.4791971 9.44444444,14.4791971 9.76190476,14.7820256 C10.0793651,15.084854 10.0793651,15.5390967 9.76190476,15.8419252 L5.63492063,19.6272811 C5,20.3843522 4.36507937,19.7786953 4.20634921,19.6272811 L0.238095238,15.8419252 C-0.0793650794,15.5390967 -0.0793650794,15.084854 0.238095238,14.7820256 C0.555555556,14.4791971 1.03174603,14.4791971 1.34920635,14.6306113 L4.20634921,17.3560675 L4.20634921,13.2429288 L4.20634921,11.8363435 C3.49659793,11.5291787 3,10.8225827 3,10 C3,9.17741733 3.49659793,8.47082132 4.20634921,8.16365654 L4.20634921,2.64393245 L1.34920635,5.36938866 C1.03174603,5.5208029 0.555555556,5.5208029 0.238095238,5.21797443 C-0.0793650794,4.91514596 -0.0793650794,4.46090326 0.238095238,4.15807479 L4.20634921,0.372718943 C4.36507937,0.221304709 5,-0.384352227 5.63492063,0.372718943 L9.76190476,4.15807479 C10.0793651,4.46090326 10.0793651,4.91514596 9.76190476,5.21797443 C9.44444444,5.5208029 8.96825397,5.5208029 8.65079365,5.21797443 L5.79365079,2.64393245 L5.79365079,8.16365654 C6.50340207,8.47082132 7,9.17741733 7,10 C7,10.8225827 6.50340207,11.5291787 5.79365079,11.8363435 Z" id="合并形状"></path>
            </g>
        </g>
    </g>
</svg>