<?xml version="1.0" encoding="UTF-8"?>
<svg width="20px" height="10px" viewBox="0 0 20 10" version="1.1" xmlns="http://www.w3.org/2000/svg" xmlns:xlink="http://www.w3.org/1999/xlink">
    <!-- Generator: Sketch 52.2 (67145) - http://www.bohemiancoding.com/sketch -->
    <title>合并形状 copy 6</title>
    <desc>Created with Sketch.</desc>
    <g id="Page-1" stroke="none" stroke-width="1" fill="none" fill-rule="evenodd">
        <g id="绘制面插件" transform="translate(-86.000000, -83.000000)" fill="#DEDEDE">
            <g id="合并形状-copy-6" transform="translate(86.000000, 83.000000)">
                <path d="M10.7936508,6.83634346 L10.7936508,8.24292883 L10.7936508,12.3560675 L13.6507937,9.78202557 C13.968254,9.4791971 14.4444444,9.4791971 14.7619048,9.78202557 C15.0793651,10.084854 15.0793651,10.5390967 14.7619048,10.8419252 L10.6349206,14.6272811 C10,15.3843522 9.36507937,14.7786953 9.20634921,14.6272811 L5.23809524,10.8419252 C4.92063492,10.5390967 4.92063492,10.084854 5.23809524,9.78202557 C5.55555556,9.4791971 6.03174603,9.4791971 6.34920635,9.63061134 L9.20634921,12.3560675 L9.20634921,8.24292883 L9.20634921,6.83634346 C8.49659793,6.52917868 8,5.82258267 8,5 C8,4.17741733 8.49659793,3.47082132 9.20634921,3.16365654 L9.20634921,-2.35606755 L6.34920635,0.369388664 C6.03174603,0.520802898 5.55555556,0.520802898 5.23809524,0.21797443 C4.92063492,-0.0848540379 4.92063492,-0.53909674 5.23809524,-0.841925208 L9.20634921,-4.62728106 C9.36507937,-4.77869529 10,-5.38435223 10.6349206,-4.62728106 L14.7619048,-0.841925208 C15.0793651,-0.53909674 15.0793651,-0.0848540379 14.7619048,0.21797443 C14.4444444,0.520802898 13.968254,0.520802898 13.6507937,0.21797443 L10.7936508,-2.35606755 L10.7936508,3.16365654 C11.5034021,3.47082132 12,4.17741733 12,5 C12,5.82258267 11.5034021,6.52917868 10.7936508,6.83634346 Z" id="合并形状-copy-4" transform="translate(10.000000, 5.000000) rotate(-90.000000) translate(-10.000000, -5.000000) "></path>
            </g>
        </g>
    </g>
</svg>