<?xml version="1.0" encoding="UTF-8"?>
<svg width="24px" height="23px" viewBox="0 0 24 23" version="1.1" xmlns="http://www.w3.org/2000/svg" xmlns:xlink="http://www.w3.org/1999/xlink">
    <!-- Generator: Sketch 52.2 (67145) - http://www.bohemiancoding.com/sketch -->
    <title>拉伸</title>
    <desc>Created with Sketch.</desc>
    <g id="Page-1" stroke="none" stroke-width="1" fill="none" fill-rule="evenodd">
        <g id="绘制面插件" transform="translate(-203.000000, -76.000000)" fill="#DEDEDE">
            <g id="拉伸" transform="translate(203.000000, 76.000000)">
                <g id="箭头" transform="translate(7.000000, 0.000000)">
                    <path d="M5.63492063,0.372718943 L9.76190476,4.15807479 C10.0793651,4.46090326 10.0793651,4.91514596 9.76190476,5.21797443 C9.44444444,5.5208029 8.96825397,5.5208029 8.65079365,5.21797443 L5.79365079,2.64393245 L5.79365079,13.2429288 C5.79365079,13.6971715 5.47619048,14 5,14 C4.52380952,14 4.20634921,13.6971715 4.20634921,13.2429288 L4.20634921,2.64393245 L1.34920635,5.36938866 C1.03174603,5.5208029 0.555555556,5.5208029 0.238095238,5.21797443 C-0.0793650794,4.91514596 -0.0793650794,4.46090326 0.238095238,4.15807479 L4.20634921,0.372718943 C4.36507937,0.221304709 5,-0.384352227 5.63492063,0.372718943 Z" id="路径"></path>
                </g>
                <g id="259体积、空间-线性" transform="translate(0.000000, 9.000000)" fill-rule="nonzero">
                    <path d="M23.0889371,3.16532618 L23.0629067,3.13873995 L23.0281996,3.14812332 L12,0 L0,3.37801609 L0,10.6376229 L12,14 L24,10.606345 L24,3.42493298 L23.0889371,3.16532618 Z M21.0469993,3.7142538 L11.9624006,6.30563003 L2.84887925,3.70487042 L11.9942155,1.13069705 L21.0469993,3.7142538 Z M1.85104845,4.55250223 L11.132321,7.20017873 L11.132321,12.6300268 L1.85104845,10.0292672 L1.85104845,4.55250223 Z M18.9067245,10.9175603 L16.1272596,11.7042002 L12.9833695,12.5924933 L12.9833695,7.14544236 L22.1489516,4.52904379 L22.1489516,9.99798928 L18.9067245,10.9175603 Z" id="形状"></path>
                </g>
            </g>
        </g>
    </g>
</svg>