<?xml version="1.0" standalone="no"?><!DOCTYPE svg PUBLIC "-//W3C//DTD SVG 1.1//EN" "http://www.w3.org/Graphics/SVG/1.1/DTD/svg11.dtd"><svg t="1542103421345" class="icon" style="" viewBox="0 0 1024 1024" version="1.1" xmlns="http://www.w3.org/2000/svg" p-id="1873" xmlns:xlink="http://www.w3.org/1999/xlink" width="32" height="32"><defs><style type="text/css"></style></defs><path d="M304.64 1011.2c-15.36 15.36-40.96 15.36-56.32 0-15.36-15.36-15.36-40.96 0-56.32l471.04-471.04c15.36-15.36 40.96-15.36 56.32 0 15.36 15.36 15.36 40.96 0 56.32L304.64 1011.2z" fill="#ffffff" p-id="1874"></path><path d="M775.68 483.84c15.36 15.36 15.36 40.96 0 56.32-15.36 15.36-40.96 15.36-56.32 0L248.32 69.12c-15.36-15.36-15.36-40.96 0-56.32 15.36-15.36 40.96-15.36 56.32 0l471.04 471.04z" fill="#ffffff" p-id="1875"></path></svg>