<?xml version="1.0" encoding="UTF-8"?>
<svg width="26px" height="26px" viewBox="0 0 26 26" version="1.1" xmlns="http://www.w3.org/2000/svg" xmlns:xlink="http://www.w3.org/1999/xlink">
    <!-- Generator: Sketch 52.2 (67145) - http://www.bohemiancoding.com/sketch -->
    <title>baocun</title>
    <desc>Created with Sketch.</desc>
    <g id="Page-1" stroke="none" stroke-width="1" fill="none" fill-rule="evenodd">
        <g id="场景服务web-copy-2" transform="translate(-1855.000000, -33.000000)" fill="#169DF9" fill-rule="nonzero">
            <g id="baocun" transform="translate(1855.000000, 33.000000)">
                <path d="M23,26 L3,26 C1.35,26 0,24.65 0,23 L0,3 C0,1.35 1.35,0 3,0 L21,0 C21.25,0 21.5,0.1 21.7,0.3 L25.7,4.3 C25.9,4.5 26,4.75 26,5 L26,23 C26,24.65 24.65,26 23,26 Z M3,2 C2.45,2 2,2.45 2,3 L2,23 C2,23.55 2.45,24 3,24 L23,24 C23.55,24 24,23.55 24,23 L24,5.4 L20.6,2 L3,2 Z M20,26 L6,26 C5.45,26 5,25.55 5,25 L5,17.1 C5,15.4 6.4,14 8.1,14 L17.95,14 C19.65,14 21.05,15.4 21.05,17.1 L21.05,25 C21,25.55 20.55,26 20,26 Z M16.85,10 L9.15,10 C7.7,10 6.5,8.8 6.5,7.35 L6.5,1 C6.5,0.45 6.95,0 7.5,0 L18.5,0 C19.05,0 19.5,0.45 19.5,1 L19.5,7.35 C19.5,8.8 18.3,10 16.85,10 Z M8.5,2 L8.5,7.35 C8.5,7.7 8.8,8 9.15,8 L16.85,8 C17.2,8 17.5,7.7 17.5,7.35 L17.5,2 L8.5,2 Z M15,6.5 C14.45,6.5 14,6.05 14,5.5 L14,4.5 C14,3.95 14.45,3.5 15,3.5 C15.55,3.5 16,3.95 16,4.5 L16,5.5 C16,6.05 15.55,6.5 15,6.5 Z" id="形状"></path>
            </g>
        </g>
    </g>
</svg>