<?xml version="1.0" standalone="no"?><!DOCTYPE svg PUBLIC "-//W3C//DTD SVG 1.1//EN" "http://www.w3.org/Graphics/SVG/1.1/DTD/svg11.dtd"><svg t="1540195881141" class="icon" style="" viewBox="0 0 1024 1024" version="1.1" xmlns="http://www.w3.org/2000/svg" p-id="5093" xmlns:xlink="http://www.w3.org/1999/xlink" width="32" height="32"><defs><style type="text/css"></style></defs><path d="M21.333333 0v1024" fill="#" p-id="5094"></path><path d="M42.666667 0v1024" fill="#" p-id="5095"></path><path d="M64 0v1024" fill="#" p-id="5096"></path><path d="M85.333333 0v1024" fill="#" p-id="5097"></path><path d="M106.666667 0v1024" fill="#" p-id="5098"></path><path d="M128 0v1024" fill="#" p-id="5099"></path><path d="M149.333333 0v1024" fill="#" p-id="5100"></path><path d="M170.666667 0v1024" fill="#" p-id="5101"></path><path d="M192 0v1024" fill="#" p-id="5102"></path><path d="M213.333333 0v1024" fill="#" p-id="5103"></path><path d="M234.666667 0v1024" fill="#" p-id="5104"></path><path d="M256 0v1024" fill="#" p-id="5105"></path><path d="M277.333333 0v1024" fill="#" p-id="5106"></path><path d="M298.666667 0v1024" fill="#" p-id="5107"></path><path d="M320 0v1024" fill="#" p-id="5108"></path><path d="M341.333333 0v1024" fill="#" p-id="5109"></path><path d="M362.666667 0v1024" fill="#848484" p-id="5110"></path><path d="M384 0v1024" fill="#848484" p-id="5111"></path><path d="M405.333333 0v1024" fill="#848484" p-id="5112"></path><path d="M426.666667 0v1024" fill="#848484" p-id="5113"></path><path d="M448 0v1024" fill="#848484" p-id="5114"></path><path d="M469.333333 0v1024" fill="#848484" p-id="5115"></path><path d="M490.666667 0v1024" fill="#848484" p-id="5116"></path><path d="M512 0v1024" fill="#848484" p-id="5117"></path><path d="M533.333333 0v1024" fill="#848484" p-id="5118"></path><path d="M554.666667 0v1024" fill="#848484" p-id="5119"></path><path d="M576 0v1024" fill="#848484" p-id="5120"></path><path d="M597.333333 0v1024" fill="#848484" p-id="5121"></path><path d="M618.666667 0v1024" fill="#848484" p-id="5122"></path><path d="M640 0v1024" fill="#848484" p-id="5123"></path><path d="M661.333333 0v1024" fill="#848484" p-id="5124"></path><path d="M682.666667 0v1024" fill="#848484" p-id="5125"></path><path d="M704 0v1024" fill="#848484" p-id="5126"></path><path d="M725.333333 0v1024" fill="#848484" p-id="5127"></path><path d="M746.666667 0v1024" fill="#848484" p-id="5128"></path><path d="M768 0v1024" fill="#848484" p-id="5129"></path><path d="M789.333333 0v1024" fill="#848484" p-id="5130"></path><path d="M810.666667 0v1024" fill="#848484" p-id="5131"></path><path d="M832 0v1024" fill="#848484" p-id="5132"></path><path d="M853.333333 0v1024" fill="#848484" p-id="5133"></path><path d="M874.666667 0v1024" fill="#848484" p-id="5134"></path><path d="M896 0v1024" fill="#848484" p-id="5135"></path><path d="M917.333333 0v1024" fill="#848484" p-id="5136"></path><path d="M938.666667 0v1024" fill="#848484" p-id="5137"></path><path d="M960 0v1024" fill="#848484" p-id="5138"></path><path d="M981.333333 0v1024" fill="#848484" p-id="5139"></path><path d="M1002.666667 0v1024M0 21.333333h1024" fill="#848484" p-id="5140"></path><path d="M0 42.666667h1024" fill="#848484" p-id="5141"></path><path d="M0 64h1024" fill="#848484" p-id="5142"></path><path d="M0 85.333333h1024" fill="#848484" p-id="5143"></path><path d="M0 106.666667h1024" fill="#848484" p-id="5144"></path><path d="M0 128h1024" fill="#848484" p-id="5145"></path><path d="M0 149.333333h1024" fill="#848484" p-id="5146"></path><path d="M0 170.666667h1024" fill="#848484" p-id="5147"></path><path d="M0 192h1024" fill="#848484" p-id="5148"></path><path d="M0 213.333333h1024" fill="#848484" p-id="5149"></path><path d="M0 234.666667h1024" fill="#848484" p-id="5150"></path><path d="M0 256h1024" fill="#848484" p-id="5151"></path><path d="M0 277.333333h1024" fill="#848484" p-id="5152"></path><path d="M0 298.666667h1024" fill="#848484" p-id="5153"></path><path d="M0 320h1024" fill="#848484" p-id="5154"></path><path d="M0 341.333333h1024" fill="#848484" p-id="5155"></path><path d="M0 362.666667h1024" fill="#848484" p-id="5156"></path><path d="M0 384h1024" fill="#848484" p-id="5157"></path><path d="M0 405.333333h1024" fill="#848484" p-id="5158"></path><path d="M0 426.666667h1024" fill="#848484" p-id="5159"></path><path d="M0 448h1024" fill="#848484" p-id="5160"></path><path d="M0 469.333333h1024" fill="#848484" p-id="5161"></path><path d="M0 490.666667h1024" fill="#848484" p-id="5162"></path><path d="M0 512h1024" fill="#848484" p-id="5163"></path><path d="M0 533.333333h1024" fill="#848484" p-id="5164"></path><path d="M0 554.666667h1024" fill="#848484" p-id="5165"></path><path d="M0 576h1024" fill="#848484" p-id="5166"></path><path d="M0 597.333333h1024" fill="#848484" p-id="5167"></path><path d="M0 618.666667h1024" fill="#848484" p-id="5168"></path><path d="M0 640h1024" fill="#848484" p-id="5169"></path><path d="M0 661.333333h1024" fill="#848484" p-id="5170"></path><path d="M0 682.666667h1024" fill="#848484" p-id="5171"></path><path d="M0 704h1024" fill="#848484" p-id="5172"></path><path d="M0 725.333333h1024" fill="#848484" p-id="5173"></path><path d="M0 746.666667h1024" fill="#848484" p-id="5174"></path><path d="M0 768h1024" fill="#848484" p-id="5175"></path><path d="M0 789.333333h1024" fill="#848484" p-id="5176"></path><path d="M0 810.666667h1024" fill="#848484" p-id="5177"></path><path d="M0 832h1024" fill="#848484" p-id="5178"></path><path d="M0 853.333333h1024" fill="#848484" p-id="5179"></path><path d="M0 874.666667h1024" fill="#848484" p-id="5180"></path><path d="M0 896h1024" fill="#848484" p-id="5181"></path><path d="M0 917.333333h1024" fill="#848484" p-id="5182"></path><path d="M0 938.666667h1024" fill="#848484" p-id="5183"></path><path d="M0 960h1024" fill="#848484" p-id="5184"></path><path d="M0 981.333333h1024" fill="#848484" p-id="5185"></path><path d="M0 1002.666667h1024" fill="#848484" p-id="5186"></path><path d="M810 274L572 512l238 238-60 60L512 572 274 810l-60-60L452 512 214 274l60-60L512 452l238-238z" fill="#848484" p-id="5187"></path></svg>